The.Neighbor.(2007).DVDRip.XviD
 
http://www.imdb.com/title/tt0978670/

Genres: Comedy | Romance

Storyline
A guy whose life is in turmoil falls for an attractive real estate broker who moves into the condo next door, but doesnt realize that she expects him to move out for her planned renovation.

Format                           : AVI
File size                        : 700 MiB
Duration                         : 1h 33mn
Overall bit rate                 : 1 042 Kbps

Video
Format                           : MPEG-4 Visual
Bit rate                         : 863 Kbps
Width                            : 672 pixels
Height                           : 368 pixels
Display aspect ratio             : 16:9
Frame rate                       : 25.000 fps
Resolution                       : 8 bits
Colorimetry                      : 4:2:0
Scan type                        : Progressive
Bits/(Pixel*Frame)               : 0.140
Stream size                      : 580 MiB (83%)

Audio
Format                           : MPEG Audio
Mode                             : Joint stereo
Codec ID/Hint                    : MP3
Bit rate mode                    : Variable
Bit rate                         : 166 Kbps
Nominal bit rate                 : 160 Kbps
Channel(s)                       : 2 channels
Sampling rate                    : 48.0 KHz
Stream size                      : 111 MiB (16%)
